<?xml version="1.0" standalone="no"?><!DOCTYPE svg PUBLIC "-//W3C//DTD SVG 1.1//EN" "http://www.w3.org/Graphics/SVG/1.1/DTD/svg11.dtd"><svg class="icon" height="512" viewBox="0 0 1024 1024" version="1.1" xmlns="http://www.w3.org/2000/svg"><path d="M92.16 529.066667V273.066667c0-10.24-6.826667-17.066667-17.066667-17.066667-13.653333 0-20.48 6.826667-20.48 17.066667v256c0 10.24 6.826667 17.066667 17.066667 17.066666 10.24 3.413333 20.48-6.826667 20.48-17.066666zM1006.933333 327.68c-10.24 0-17.066667 6.826667-17.066666 17.066667v109.226666c0 10.24 6.826667 17.066667 17.066666 17.066667s17.066667-6.826667 17.066667-17.066667v-109.226666c0-6.826667-6.826667-17.066667-17.066667-17.066667zM37.546667 457.386667v-109.226667c0-10.24-6.826667-17.066667-17.066667-17.066667-13.653333-3.413333-20.48 6.826667-20.48 17.066667v109.226667c0 10.24 6.826667 17.066667 17.066667 17.066666s20.48-6.826667 20.48-17.066666zM969.386667 529.066667V273.066667c0-10.24-6.826667-17.066667-17.066667-17.066667s-17.066667 6.826667-17.066667 17.066667v256c0 10.24 6.826667 17.066667 17.066667 17.066666 10.24 3.413333 17.066667-6.826667 17.066667-17.066666zM696.32 512c61.44 0 109.226667-47.786667 109.226667-109.226667 0-61.44-47.786667-109.226667-109.226667-109.226666s-109.226667 47.786667-109.226667 109.226666c-3.413333 61.44 47.786667 109.226667 109.226667 109.226667z m0-184.32c40.96 0 71.68 34.133333 71.68 71.68 0 40.96-34.133333 71.68-71.68 71.68-40.96 0-71.68-34.133333-71.68-71.68-3.413333-37.546667 30.72-71.68 71.68-71.68zM327.68 512c61.44 0 109.226667-47.786667 109.226667-109.226667 0-61.44-47.786667-109.226667-109.226667-109.226666S218.453333 341.333333 218.453333 402.773333c0 61.44 51.2 109.226667 109.226667 109.226667z m0-184.32c40.96 0 71.68 34.133333 71.68 71.68 0 40.96-34.133333 71.68-71.68 71.68-40.96 0-71.68-34.133333-71.68-71.68s34.133333-71.68 71.68-71.68zM621.226667 0h-218.453334c-20.48 0-37.546667 17.066667-37.546666 37.546667v71.68H146.773333c-20.48 0-37.546667 17.066667-37.546666 37.546666v512c0 20.48 17.066667 37.546667 37.546666 37.546667h218.453334v71.68H293.546667c-20.48 0-37.546667 17.066667-37.546667 37.546667V989.866667c0 17.066667 17.066667 34.133333 37.546667 34.133333h440.32c20.48 0 37.546667-17.066667 37.546666-37.546667v-184.32c0-20.48-17.066667-37.546667-37.546666-37.546666h-71.68v-71.68h218.453333c20.48 0 37.546667-17.066667 37.546667-37.546667v-512c0-20.48-17.066667-37.546667-37.546667-37.546667h-218.453333v-68.266666C658.773333 17.066667 641.706667 0 621.226667 0z m-218.453334 37.546667h218.453334v71.68h-218.453334V37.546667z m327.68 768V989.866667H293.546667v-184.32h109.226666v-109.226667h218.453334v109.226667h109.226666z m109.226667-658.773334c20.48 0 37.546667 17.066667 37.546667 37.546667v440.32c0 20.48-17.066667 37.546667-37.546667 37.546667H184.32c-20.48 0-37.546667-17.066667-37.546667-37.546667V184.32c0-20.48 17.066667-37.546667 37.546667-37.546667h655.36z" /></svg>